<?xml version="1.0" ?><svg contentScriptType="text/ecmascript" contentStyleType="text/css" enable-background="new 0 0 2048 2048" height="2048px" id="Layer_1" preserveAspectRatio="xMidYMid meet" version="1.1" viewBox="53.0 0 1558.0 2048" width="1558.0px" xml:space="preserve" xmlns="http://www.w3.org/2000/svg" xmlns:xlink="http://www.w3.org/1999/xlink" zoomAndPan="magnify"><path d="M1611,832c0,35.333-12.333,65.333-37,90l-651,651c-25.333,25.333-55.667,38-91,38c-36,0-66-12.667-90-38L91,922  c-25.333-24-38-54-38-90c0-35.333,12.667-65.667,38-91l74-75c26-24.667,56.333-37,91-37c35.333,0,65.333,12.333,90,37l486,486  l486-486c24.667-24.667,54.667-37,90-37c34.667,0,65,12.333,91,37l75,75C1598.667,767,1611,797.333,1611,832z"/></svg>