<?xml version="1.0" ?><svg height="100%" version="1.1" viewBox="0 0 14 18" width="100%" xmlns="http://www.w3.org/2000/svg" xmlns:sketch="http://www.bohemiancoding.com/sketch/ns" xmlns:xlink="http://www.w3.org/1999/xlink"><g fill="none" fill-rule="evenodd" id="Page-1" stroke="none" stroke-width="1"><g fill="#f00" id="Core" transform="translate(-299.000000, -45.000000)"><g id="bookmark-outline" transform="translate(299.000000, 45.000000)">
<!--<path d="M12,0 L2,0 C0.9,0 0,0.9 0,2 L0,18 L7,15 L14,18 L14,2 C14,0.9 13.1,0 12,0 L12,0 Z M12,15 L7,12.8 L2,15 L2,2 L12,2 L12,15 L12,15 Z" id="Shape" fill="red"/>-->
<path d="M12,0 L2,0 C0.9,0 0,0.9 0,2 L0,18 L7,15 L14,18 L14,2 C14,0.9 13.1,0 12,0 L12,0 Z" id="Shape" fill="red"/>
</g></g></g></svg>