<?xml-stylesheet type="text/css" href="svgsheet.css" ?><svg version="1.1" xmlns="http://www.w3.org/2000/svg" xmlns:xlink="http://www.w3.org/1999/xlink" xml:space="preserve" preserveAspectRatio="none" width="100%" height="100%" viewBox="0 0 538 718"    >
<g transform="matrix(1,0,0,1,83.14953,64.48362)"><g transform="matrix(1,0,0,1,0,0)"><text x="0" y="56.16"  textLength="240" font-size="60"  fill="#bf0020" font-family="Arial" xml:space="preserve" preserveAspectRatio="none" font-style="normal"  font-weight="400" text-decoration="blink" writing-mode="lr">阿尔卑斯</text><text x="0" y="81.828"  textLength="0" font-size="10.5"  fill="#000000" font-family="Calibri" xml:space="preserve" preserveAspectRatio="none" font-style="normal"  font-weight="400" text-decoration="blink" writing-mode="lr"> </text></g></g><g transform="matrix(1,0,0,1,329.0551,84.02409)"><g transform="matrix(1,0,0,1,0,0)"><text x="0" y="37.44"  textLength="80" font-size="40"  fill="#bf0020" font-family="Arial" xml:space="preserve" preserveAspectRatio="none" font-style="normal"  font-weight="400" text-decoration="blink" writing-mode="lr">山脉</text><text x="0" y="57.828"  textLength="0" font-size="10.5"  fill="#000000" font-family="Calibri" xml:space="preserve" preserveAspectRatio="none" font-style="normal"  font-weight="400" text-decoration="blink" writing-mode="lr"> </text></g></g><g transform="matrix(1,0,0,1,330.2362,136.0017)"><g transform="matrix(1,0,0,1,0,0)"><text x="0" y="22.464"  textLength="120" font-size="24"  fill="#000000" font-family="宋体" xml:space="preserve" preserveAspectRatio="none" font-style="normal"  font-weight="400" text-decoration="blink" writing-mode="lr">让脚步停滞</text><text x="0" y="38.628"  textLength="0" font-size="10.5"  fill="#000000" font-family="Calibri" xml:space="preserve" preserveAspectRatio="none" font-style="normal"  font-weight="400" text-decoration="blink" writing-mode="lr"> </text></g></g><g transform="matrix(1,0,0,1,327.6377,170.7839)"><g transform="matrix(1,0,0,1,0,0)"><text x="0" y="14.976"  textLength="111.9844" font-size="16"  fill="#bf0020" font-family="Adorable" xml:space="preserve" preserveAspectRatio="none" font-style="normal"  font-weight="400" text-decoration="blink" writing-mode="lr">Alps Mountains </text><text x="0" y="29.028"  textLength="0" font-size="10.5"  fill="#000000" font-family="Calibri" xml:space="preserve" preserveAspectRatio="none" font-style="normal"  font-weight="400" text-decoration="blink" writing-mode="lr"> </text></g></g></svg>