<?xml version="1.0" encoding="utf-8"?>
<svg width="100%" height="100%" viewBox="0 0 32 32" xmlns="http://www.w3.org/2000/svg">
    <g>
      <path fill="white" fill-opacity="0.9" stroke="white" stroke-opacity="0" stroke-dasharray="3,3" d="m16.166,1.8278c-7.8762,0-14.28,6.405-14.28,14.279,0,7.8712,6.4038,14.274,14.28,14.274,7.8712,0,14.275-6.4025,14.275-14.274,0-7.8737-6.4038-14.279-14.275-14.279"></path>
      <path fill="#007aff" d="M21.153,10.236l-5.139,4.953l-4.957-5.139c-0.219-0.229-0.583-0.234-0.811-0.016
		c-0.229,0.219-0.234,0.584-0.015,0.812l4.955,5.141l-5.137,4.952c-0.229,0.222-0.235,0.583-0.017,0.812
		c0.113,0.117,0.263,0.174,0.413,0.174c0.144,0,0.288-0.052,0.399-0.16l5.136-4.953l4.953,5.136
		c0.115,0.118,0.265,0.178,0.415,0.178c0.145,0,0.287-0.054,0.397-0.163c0.229-0.219,0.237-0.583,0.015-0.812l-4.951-5.137
		l5.137-4.953c0.229-0.22,0.234-0.582,0.016-0.812C21.744,10.021,21.38,10.02,21.153,10.236z"></path>
    </g>
</svg>