<?xml version="1.0" encoding="utf-8"?>
<svg width="100%" height="100%" viewBox="0 0 32 32" xmlns="http://www.w3.org/2000/svg">
    <g>
      <path fill="white" fill-opacity="0.9" stroke="white" stroke-opacity="0" stroke-dasharray="3,3" d="m16.166,1.8278c-7.8762,0-14.28,6.405-14.28,14.279,0,7.8712,6.4038,14.274,14.28,14.274,7.8712,0,14.275-6.4025,14.275-14.274,0-7.8737-6.4038-14.279-14.275-14.279"></path>
      <path fill="#007aff" d="M20.191,8.017c-0.225-0.223-0.586-0.223-0.81,0l-7.979,7.981l7.979,7.984
		c0.112,0.112,0.257,0.168,0.405,0.168c0.147,0,0.295-0.056,0.404-0.168c0.225-0.225,0.225-0.587,0-0.812l-7.165-7.173l7.165-7.169
		C20.416,8.605,20.416,8.242,20.191,8.017z"></path>
    </g>
</svg>